name analog
datacolumns 19
datarows 32
range 0.0 0.0155
endheader
time	ground_force_vx	ground_force_vy	ground_force_vz	ground_force_px	ground_force_py	ground_force_pz	l_ground_force_vx	l_ground_force_vy	l_ground_force_vz	l_ground_force_px	l_ground_force_py	l_ground_force_pz	ground_torque_x	ground_torque_y	ground_torque_z	l_ground_torque_x	l_ground_torque_y	l_ground_torque_z
0.0	-0.0	-0.0	-0.0	6.069046497344971	23.789628982543945	-456.4598693847656	-4.529626369476318	-25.52496719360352	-159.276611328125	-0.0	-0.0	-0.0	-0.0	-0.0	-0.0	43325.55859375	7010.39404296875	-2915.8818359375
0.0005	-0.0	-0.0	-0.0	5.455793857574463	23.70589828491211	-459.86236572265625	-4.704418182373047	-25.351058959960938	-158.25216674804688	-0.0	-0.0	-0.0	-0.0	-0.0	-0.0	42983.34765625	7173.33740234375	-2799.123046875
0.001	-0.0	-0.0	-0.0	6.403043746948242	23.794946670532227	-460.5807495117188	-4.360973358154297	-25.01193618774414	-158.52597045898438	-0.0	-0.0	-0.0	-0.0	-0.0	-0.0	43146.3046875	7355.9462890625	-2915.584228515625
0.0015	-0.0	-0.0	-0.0	6.143738746643066	23.979022979736328	-460.8531799316406	-4.3642401695251465	-25.26000213623047	-159.15602111816406	-0.0	-0.0	-0.0	-0.0	-0.0	-0.0	42981.69140625	7582.76220703125	-2944.319091796875
0.002	-0.0	-0.0	-0.0	5.899915218353272	23.17690658569336	-460.2053833007813	-4.873172283172607	-24.81544685363769	-158.86398315429688	-0.0	-0.0	-0.0	-0.0	-0.0	-0.0	43203.60546875	7267.33740234375	-2914.864990234375
0.0025	-0.0	-0.0	-0.0	5.894070148468018	23.373764038085938	-461.16741943359375	-4.698628902435303	-24.827482223510746	-159.12930297851562	-0.0	-0.0	-0.0	-0.0	-0.0	-0.0	43010.81640625	7339.00341796875	-2826.714111328125
0.003	-0.0	-0.0	-0.0	5.642292499542236	23.785240173339844	-459.1463623046875	-4.619163513183594	-24.65410041809082	-159.188720703125	-0.0	-0.0	-0.0	-0.0	-0.0	-0.0	42932.9453125	7291.2646484375	-2887.99609375
0.0035	-0.0	-0.0	-0.0	5.805125236511231	23.781726837158203	-459.5636291503906	-5.043815612792969	-24.98555374145508	-158.4148712158203	-0.0	-0.0	-0.0	-0.0	-0.0	-0.0	42891.7421875	7155.4541015625	-2857.68115234375
0.004	-0.0	-0.0	-0.0	5.514533996582031	23.365367889404297	-461.9724426269531	-5.39181661605835	-24.91320037841797	-156.12203979492188	-0.0	-0.0	-0.0	-0.0	-0.0	-0.0	42610.046875	7137.92578125	-2830.42431640625
0.0045000000000000005	-0.0	-0.0	-0.0	5.6303486824035645	23.866792678833008	-460.1934814453125	-5.138595104217529	-24.56993103027344	-157.11822509765625	-0.0	-0.0	-0.0	-0.0	-0.0	-0.0	42784.7578125	7275.19970703125	-2893.95849609375
0.005	-0.0	-0.0	-0.0	5.634042263031006	23.81158447265625	-459.9220886230469	-5.056514739990234	-24.468488693237305	-156.419921875	-0.0	-0.0	-0.0	-0.0	-0.0	-0.0	42531.9765625	7324.74365234375	-2919.159423828125
0.0055	-0.0	-0.0	-0.0	5.534570217132568	23.87991714477539	-460.6580810546875	-5.326117992401123	-24.72661590576172	-156.0844268798828	-0.0	-0.0	-0.0	-0.0	-0.0	-0.0	42850.375	7302.970703125	-2977.63330078125
0.006	-0.0	-0.0	-0.0	5.70231819152832	24.07235717773437	-460.98480224609375	-5.148754596710205	-24.376785278320312	-156.76907348632812	-0.0	-0.0	-0.0	-0.0	-0.0	-0.0	42522.09375	7152.244140625	-3032.04541015625
0.006500000000000001	-0.0	-0.0	-0.0	5.359950542449951	23.61224365234375	-461.9303588867188	-5.156059265136719	-24.722881317138672	-156.08497619628906	-0.0	-0.0	-0.0	-0.0	-0.0	-0.0	42350.7578125	7370.36279296875	-2979.973388671875
0.007	-0.0	-0.0	-0.0	5.516176223754883	23.872085571289062	-464.4021911621094	-4.930470943450928	-24.56073570251465	-156.11410522460938	-0.0	-0.0	-0.0	-0.0	-0.0	-0.0	42537.265625	7285.6748046875	-3042.840087890625
0.0075	-0.0	-0.0	-0.0	5.422946453094482	23.285688400268555	-460.6363830566406	-5.49260950088501	-24.56456756591797	-156.78375244140625	-0.0	-0.0	-0.0	-0.0	-0.0	-0.0	42526.9375	7242.767578125	-2924.704345703125
0.008	-0.0	-0.0	-0.0	5.077277660369873	23.173904418945312	-461.606201171875	-5.503879547119141	-24.29225730895996	-156.0857696533203	-0.0	-0.0	-0.0	-0.0	-0.0	-0.0	42511.265625	7355.86572265625	-3034.542236328125
0.0085	-0.0	-0.0	-0.0	5.329024791717529	23.356096267700195	-461.5750427246094	-5.230052471160889	-24.380651473999023	-155.7827606201172	-0.0	-0.0	-0.0	-0.0	-0.0	-0.0	42530.28125	7312.75830078125	-3009.876708984375
0.009000000000000001	-0.0	-0.0	-0.0	5.255385875701904	23.356178283691406	-462.28076171875	-5.068413734436035	-24.549480438232425	-156.03955078125	-0.0	-0.0	-0.0	-0.0	-0.0	-0.0	42522.2734375	7610.021484375	-2978.89697265625
0.0095	-0.0	-0.0	-0.0	5.364859580993652	23.33587455749512	-460.98052978515625	-5.141200065612793	-24.39281463623047	-156.40408325195312	-0.0	-0.0	-0.0	-0.0	-0.0	-0.0	42519.7265625	7325.748046875	-3004.57421875
0.01	-0.0	-0.0	-0.0	5.194958686828613	23.323143005371094	-462.2796936035156	-4.988295555114746	-24.54526710510254	-155.00718688964844	-0.0	-0.0	-0.0	-0.0	-0.0	-0.0	42224.47265625	7455.71142578125	-2923.71044921875
0.0105	-0.0	-0.0	-0.0	5.114627361297607	23.24612045288086	-464.3143310546875	-5.161948204040527	-24.46094512939453	-155.0726776123047	-0.0	-0.0	-0.0	-0.0	-0.0	-0.0	42582.2265625	7474.41162109375	-3005.9521484375
0.011	-0.0	-0.0	-0.0	5.06783390045166	23.691537857055664	-464.3806762695313	-5.238175392150879	-24.2800235748291	-155.42251586914062	-0.0	-0.0	-0.0	-0.0	-0.0	-0.0	42204.6328125	7381.5087890625	-2926.89111328125
0.0115	-0.0	-0.0	-0.0	5.450543403625488	23.360858917236328	-465.4394836425781	-5.331243991851807	-24.29702377319336	-154.37576293945312	-0.0	-0.0	-0.0	-0.0	-0.0	-0.0	42509.58203125	7536.67578125	-3124.687255859375
0.012	-0.0	-0.0	-0.0	5.2767181396484375	23.59298324584961	-463.7428283691406	-5.327026844024658	-24.124900817871094	-156.4543914794922	-0.0	-0.0	-0.0	-0.0	-0.0	-0.0	42504.68359375	7540.2548828125	-3008.913330078125
0.0125	-0.0	-0.0	-0.0	5.276939392089844	23.43229103088379	-463.8144836425781	-5.349364757537842	-24.125120162963867	-154.98826599121094	-0.0	-0.0	-0.0	-0.0	-0.0	-0.0	42434.26953125	7713.16455078125	-3123.167236328125
0.013000000000000001	-0.0	-0.0	-0.0	5.498927593231201	23.587461471557617	-464.0602722167969	-5.424963474273682	-24.04155921936035	-156.088623046875	-0.0	-0.0	-0.0	-0.0	-0.0	-0.0	42110.34765625	7703.31591796875	-3012.09912109375
0.0135	-0.0	-0.0	-0.0	5.427896976470947	23.4366512298584	-464.4132385253906	-5.42054557800293	-23.958044052124023	-154.27076721191406	-0.0	-0.0	-0.0	-0.0	-0.0	-0.0	42101.05859375	7804.30419921875	-3091.92822265625
0.014	-0.0	-0.0	-0.0	5.287027359008789	23.267751693725582	-465.4537658691406	-5.266603946685791	-23.930530548095703	-154.32501220703125	-0.0	-0.0	-0.0	-0.0	-0.0	-0.0	41772.96484375	7763.50390625	-3121.427001953125
0.0145	-0.0	-0.0	-0.0	5.437036991119385	23.173904418945312	-464.5077209472656	-5.495319366455078	-23.84212684631348	-153.95716857910156	-0.0	-0.0	-0.0	-0.0	-0.0	-0.0	41649.98046875	7536.5439453125	-3123.100341796875
0.015	-0.0	-0.0	-0.0	5.436978340148926	23.515850067138672	-465.176513671875	-5.766201019287109	-23.837282180786133	-154.9097900390625	-0.0	-0.0	-0.0	-0.0	-0.0	-0.0	41709.46875	7518.73095703125	-3123.272216796875
0.0155	-0.0	-0.0	-0.0	5.159398555755615	23.258102416992188	-465.5497741699219	-5.751557350158691	-23.74881362915039	-153.91822814941406	-0.0	-0.0	-0.0	-0.0	-0.0	-0.0	41568.37109375	7402.99267578125	-3007.822998046875
